<svg xmlns="http://www.w3.org/2000/svg" viewBox="0 0 194.06 194.46"><defs><style>.cls-1{fill:#fff;}</style></defs><title>cross</title><g id="Layer_2" data-name="Layer 2"><g id="Layer_1-2" data-name="Layer 1"><line class="cls-1" x1="8.48" y1="8.48" x2="185.98" y2="185.98"/><path d="M14,2.92C27.28,19.26,41.26,34.86,55.46,50.25S84.21,80.67,99,95.49s29.79,29.38,45.1,43.65,30.9,28.26,47.21,41.54a7.54,7.54,0,1,1-9.52,11.69,8.55,8.55,0,0,1-1.08-1.09c-13.28-16.31-27.29-31.87-41.54-47.21S110.31,113.73,95.49,99,65.6,69.69,50.25,55.46,19.26,27.28,2.92,14a7.9,7.9,0,0,1,10-12.27A8.48,8.48,0,0,1,14,2.92Z"/><line class="cls-1" x1="8.48" y1="185.98" x2="185.98" y2="8.48"/><path d="M2.92,180.42C19.26,167.18,34.86,153.2,50.25,139s30.42-28.75,45.24-43.51,29.38-29.79,43.65-45.1,28.26-30.9,41.54-47.21a7.53,7.53,0,1,1,11.69,9.51,8,8,0,0,1-1.09,1.09C175,27.06,159.41,41.07,144.07,55.32S113.73,84.15,99,99s-29.28,29.89-43.51,45.24S27.28,175.2,14,191.53a7.9,7.9,0,0,1-12.27-9.95A9.78,9.78,0,0,1,2.92,180.42Z"/></g></g></svg>