<svg xmlns="http://www.w3.org/2000/svg" xmlns:xlink="http://www.w3.org/1999/xlink" viewBox="0 0 328.69 126.71"><defs><style>.cls-1{fill:url(#radial-gradient);}.cls-10,.cls-11,.cls-12,.cls-13,.cls-2,.cls-3,.cls-4,.cls-6,.cls-7,.cls-8,.cls-9{stroke-miterlimit:10;}.cls-2,.cls-3{stroke-width:0.25px;}.cls-2{fill:url(#linear-gradient);stroke:url(#linear-gradient-2);}.cls-3{fill:url(#linear-gradient-3);stroke:url(#linear-gradient-4);}.cls-10,.cls-11,.cls-12,.cls-13,.cls-4,.cls-6,.cls-7,.cls-8,.cls-9{stroke:#000;}.cls-4{stroke-width:0.02px;fill:url(#linear-gradient-5);}.cls-5{fill:url(#linear-gradient-6);}.cls-6,.cls-9{stroke-width:0.03px;}.cls-6{fill:url(#linear-gradient-7);}.cls-7{stroke-width:0.05px;fill:url(#linear-gradient-8);}.cls-10,.cls-8{stroke-width:0.03px;}.cls-8{fill:url(#linear-gradient-9);}.cls-9{fill:url(#linear-gradient-10);}.cls-10{fill:url(#linear-gradient-11);}.cls-11{stroke-width:0.02px;fill:url(#linear-gradient-12);}.cls-12,.cls-13{stroke-width:0.04px;}.cls-12{fill:url(#linear-gradient-13);}.cls-13{fill:url(#linear-gradient-14);}.cls-14{fill:url(#linear-gradient-15);}.cls-15{fill:url(#linear-gradient-16);}.cls-16{opacity:0.19;fill:url(#linear-gradient-17);}.cls-17{fill:url(#linear-gradient-18);}.cls-18{fill:url(#linear-gradient-19);}.cls-19{fill:url(#linear-gradient-20);}.cls-20{fill:url(#linear-gradient-21);}.cls-21{fill:url(#linear-gradient-22);}.cls-22{fill:url(#linear-gradient-23);}.cls-23{fill:url(#linear-gradient-24);}.cls-24{fill:url(#linear-gradient-25);}</style><radialGradient id="radial-gradient" cx="7.76" cy="125.05" r="117.86" gradientTransform="translate(142.19 85.85) scale(2.86 0.25)" gradientUnits="userSpaceOnUse"><stop offset="0.17"/><stop offset="0.18" stop-color="#050505"/><stop offset="0.19" stop-color="#151515"/><stop offset="0.21" stop-color="#2f2f2f"/><stop offset="0.22" stop-color="#535353"/><stop offset="0.23" stop-color="#818181"/><stop offset="0.25" stop-color="#b9b9b9"/><stop offset="0.26" stop-color="#fafafa"/><stop offset="0.27" stop-color="#fff"/></radialGradient><linearGradient id="linear-gradient" x1="224.29" y1="56.55" x2="29.92" y2="124.89" gradientUnits="userSpaceOnUse"><stop offset="0" stop-color="#231f20"/><stop offset="0.02" stop-color="#3d393a"/><stop offset="0.05" stop-color="#656263"/><stop offset="0.08" stop-color="#8a8888"/><stop offset="0.12" stop-color="#aaa8a9"/><stop offset="0.16" stop-color="#c5c4c4"/><stop offset="0.2" stop-color="#dadada"/><stop offset="0.26" stop-color="#ebebeb"/><stop offset="0.32" stop-color="#f6f6f6"/><stop offset="0.42" stop-color="#fdfdfd"/><stop offset="0.67" stop-color="#fff"/></linearGradient><linearGradient id="linear-gradient-2" x1="89.05" y1="74.81" x2="234.3" y2="74.81" gradientUnits="userSpaceOnUse"><stop offset="0.19" stop-color="#f1f2f2"/><stop offset="0.24" stop-color="#fbfbfb"/><stop offset="0.3" stop-color="#fff"/><stop offset="0.39" stop-color="#fbfbfb"/><stop offset="0.48" stop-color="#efefef"/><stop offset="0.57" stop-color="#dcdbdb"/><stop offset="0.67" stop-color="#c0bfbf"/><stop offset="0.76" stop-color="#9d9b9c"/><stop offset="0.85" stop-color="#716f6f"/><stop offset="0.94" stop-color="#3f3c3c"/><stop offset="0.99" stop-color="#231f20"/></linearGradient><linearGradient id="linear-gradient-3" x1="86.07" y1="100.62" x2="237.28" y2="100.62" gradientUnits="userSpaceOnUse"><stop offset="0" stop-color="#f1f2f2"/><stop offset="0.1" stop-color="#fbfbfb"/><stop offset="0.22" stop-color="#fff"/><stop offset="0.33" stop-color="#fbfbfb"/><stop offset="0.43" stop-color="#efefef"/><stop offset="0.54" stop-color="#dcdbdb"/><stop offset="0.64" stop-color="#c0bfbf"/><stop offset="0.74" stop-color="#9d9b9c"/><stop offset="0.85" stop-color="#716f6f"/><stop offset="0.95" stop-color="#3f3c3c"/><stop offset="1" stop-color="#231f20"/></linearGradient><linearGradient id="linear-gradient-4" x1="85.94" y1="100.33" x2="237.4" y2="100.33" gradientUnits="userSpaceOnUse"><stop offset="0" stop-color="#f1f2f2"/><stop offset="0.03" stop-color="#fbfbfb"/><stop offset="0.05" stop-color="#fff"/><stop offset="0.18" stop-color="#fbfbfb"/><stop offset="0.31" stop-color="#efefef"/><stop offset="0.43" stop-color="#dcdbdb"/><stop offset="0.55" stop-color="#c0bfbf"/><stop offset="0.68" stop-color="#9d9b9c"/><stop offset="0.8" stop-color="#716f6f"/><stop offset="0.93" stop-color="#3f3c3c"/><stop offset="0.99" stop-color="#231f20"/></linearGradient><linearGradient id="linear-gradient-5" x1="161.68" y1="59.08" x2="161.66" y2="60.22" gradientUnits="userSpaceOnUse"><stop offset="0" stop-color="#231f20"/><stop offset="0.11" stop-color="#fff"/><stop offset="0.16" stop-color="#e0dfdf"/><stop offset="0.27" stop-color="#9d9c9c"/><stop offset="0.36" stop-color="#696667"/><stop offset="0.45" stop-color="#433f40"/><stop offset="0.51" stop-color="#2c2829"/><stop offset="0.55" stop-color="#231f20"/></linearGradient><linearGradient id="linear-gradient-6" x1="5.57" y1="-3.79" x2="20.2" y2="-3.79" gradientTransform="matrix(1.91, 2.83, -2.74, 1.84, 121.25, 43.94)" gradientUnits="userSpaceOnUse"><stop offset="0" stop-color="#fff"/><stop offset="0.33" stop-color="#fff" stop-opacity="0.99"/><stop offset="0.46" stop-color="#fefefe" stop-opacity="0.96"/><stop offset="0.56" stop-color="#fdfdfd" stop-opacity="0.91"/><stop offset="0.65" stop-color="#fbfbfb" stop-opacity="0.85"/><stop offset="0.72" stop-color="#f8f8f8" stop-opacity="0.75"/><stop offset="0.79" stop-color="#f5f5f5" stop-opacity="0.64"/><stop offset="0.85" stop-color="#f1f1f1" stop-opacity="0.51"/><stop offset="0.9" stop-color="#ededed" stop-opacity="0.36"/><stop offset="0.95" stop-color="#e8e8e8" stop-opacity="0.19"/><stop offset="1" stop-color="#e3e3e3" stop-opacity="0"/></linearGradient><linearGradient id="linear-gradient-7" x1="160.73" y1="68.43" x2="160.66" y2="72.45" xlink:href="#linear-gradient-5"/><linearGradient id="linear-gradient-8" x1="161.71" y1="83.37" x2="161.59" y2="90.39" xlink:href="#linear-gradient-5"/><linearGradient id="linear-gradient-9" x1="202.83" y1="69.83" x2="202.76" y2="73.85" gradientTransform="matrix(0, 1, -0.66, 0, 244.1, -138.38)" xlink:href="#linear-gradient-5"/><linearGradient id="linear-gradient-10" x1="226.08" y1="66.69" x2="226" y2="70.71" gradientTransform="translate(292.23 -150.61) rotate(90)" xlink:href="#linear-gradient-5"/><linearGradient id="linear-gradient-11" x1="192.08" y1="74.81" x2="192" y2="78.82" gradientTransform="matrix(-1, 0, 0, 0.66, 313.99, 15.18)" xlink:href="#linear-gradient-5"/><linearGradient id="linear-gradient-12" x1="221.28" y1="140.46" x2="221.21" y2="144.47" gradientTransform="matrix(-1, 0, 0, 0.5, 317.96, 4.56)" xlink:href="#linear-gradient-5"/><linearGradient id="linear-gradient-13" x1="143.97" y1="57.92" x2="143.9" y2="61.93" gradientTransform="matrix(-0.94, 0, 0, 1.77, 255.21, -24.65)" xlink:href="#linear-gradient-5"/><linearGradient id="linear-gradient-14" x1="342.54" y1="49.63" x2="342.47" y2="53.64" gradientTransform="matrix(0, 0.94, -1.77, 0, 295.38, -240.42)" xlink:href="#linear-gradient-5"/><linearGradient id="linear-gradient-15" x1="93.74" y1="116.02" x2="231.14" y2="116.02" gradientUnits="userSpaceOnUse"><stop offset="0" stop-color="#fff"/><stop offset="0.26" stop-color="#fff" stop-opacity="0.99"/><stop offset="0.37" stop-color="#fefefe" stop-opacity="0.96"/><stop offset="0.45" stop-color="#fdfdfd" stop-opacity="0.91"/><stop offset="0.52" stop-color="#fbfbfb" stop-opacity="0.85"/><stop offset="0.57" stop-color="#f8f8f8" stop-opacity="0.75"/><stop offset="0.63" stop-color="#f5f5f5" stop-opacity="0.64"/><stop offset="0.67" stop-color="#f1f1f1" stop-opacity="0.51"/><stop offset="0.72" stop-color="#ededed" stop-opacity="0.36"/><stop offset="0.76" stop-color="#e8e8e8" stop-opacity="0.19"/><stop offset="0.8" stop-color="#e3e3e3" stop-opacity="0"/></linearGradient><linearGradient id="linear-gradient-16" x1="144.97" y1="81.05" x2="143.17" y2="109.71" gradientUnits="userSpaceOnUse"><stop offset="0" stop-opacity="0.4"/><stop offset="0.13" stop-color="#545454" stop-opacity="0.27"/><stop offset="0.97" stop-color="#fff" stop-opacity="0"/></linearGradient><linearGradient id="linear-gradient-17" x1="92.91" y1="75.9" x2="133.6" y2="93.96" gradientUnits="userSpaceOnUse"><stop offset="0.38" stop-color="#fff" stop-opacity="0.4"/><stop offset="0.48" stop-color="#efefef" stop-opacity="0.44"/><stop offset="0.59" stop-color="#c1c0c0" stop-opacity="0.57"/><stop offset="0.71" stop-color="#767374" stop-opacity="0.77"/><stop offset="0.81" stop-color="#231f20"/></linearGradient><linearGradient id="linear-gradient-18" x1="162.44" y1="38.34" x2="162.44" y2="32.48" gradientUnits="userSpaceOnUse"><stop offset="0" stop-color="#fff" stop-opacity="0"/><stop offset="0.03" stop-color="#f5fcfe" stop-opacity="0.04"/><stop offset="0.39" stop-color="#8ddaf5" stop-opacity="0.45"/><stop offset="0.68" stop-color="#41c2ef" stop-opacity="0.74"/><stop offset="0.89" stop-color="#12b3eb" stop-opacity="0.93"/><stop offset="1" stop-color="#00ade9"/></linearGradient><linearGradient id="linear-gradient-19" x1="162.44" y1="13.25" x2="162.44" y2="6.39" xlink:href="#linear-gradient-18"/><linearGradient id="linear-gradient-20" x1="162.44" y1="25.66" x2="162.44" y2="19.58" xlink:href="#linear-gradient-18"/><linearGradient id="linear-gradient-21" x1="162.44" y1="31.9" x2="162.44" y2="26.13" xlink:href="#linear-gradient-18"/><linearGradient id="linear-gradient-22" x1="162.44" y1="50.28" x2="162.44" y2="46.14" xlink:href="#linear-gradient-18"/><linearGradient id="linear-gradient-23" x1="162.44" y1="44.56" x2="162.44" y2="39.06" xlink:href="#linear-gradient-18"/><linearGradient id="linear-gradient-24" x1="162.06" y1="19.64" x2="162.06" y2="13.33" xlink:href="#linear-gradient-18"/><linearGradient id="linear-gradient-25" x1="162.44" y1="6.85" x2="162.44" y2="-0.01" xlink:href="#linear-gradient-18"/></defs><title>speaker</title><g id="Layer_2" data-name="Layer 2"><g id="Layer_1-2" data-name="Layer 1"><path class="cls-1" d="M328.69,114c0-4.72-59.32-6.44-155.16-6.44S0,111.4,0,116.13s86.32,10.58,182.16,10.58S328.69,118.74,328.69,114Z"/><path class="cls-2" d="M234.17,80.24c0,5.89-32.44,10.66-72.5,10.68s-72.5-4.79-72.5-10.68,32.44-21.52,72.5-21.54S234.17,74.35,234.17,80.24Z"/><path class="cls-3" d="M234,111.11l0,.06C231,116.66,199.78,121,161.67,121s-69.33-4.34-72.27-9.83l0-.06c-.55-.92-7-12.29-.19-30.87,0,5.89,32.44,10.66,72.5,10.68s72.5-4.79,72.5-10.68C241,98.82,234.53,110.19,234,111.11Z"/><ellipse class="cls-4" cx="161.67" cy="59.42" rx="3.53" ry="0.26"/><path class="cls-5" d="M205.19,70.56c-74.19-6.12-94.49-4-94.88,7.6C109.45,103.92,205.19,70.56,205.19,70.56Z"/><ellipse class="cls-6" cx="160.71" cy="69.63" rx="3.53" ry="0.93"/><ellipse class="cls-7" cx="161.67" cy="85.47" rx="3.53" ry="1.63"/><ellipse class="cls-8" cx="197.51" cy="64.43" rx="0.61" ry="3.53" transform="translate(87.92 240.92) rotate(-76.23)"/><ellipse class="cls-9" cx="224.34" cy="75.44" rx="0.93" ry="3.53" transform="translate(64.91 250.37) rotate(-66.24)"/><ellipse class="cls-10" cx="121.93" cy="65.04" rx="3.53" ry="0.61" transform="translate(-11.98 30.89) rotate(-13.77)"/><ellipse class="cls-11" cx="96.69" cy="75.39" rx="3.53" ry="0.46" transform="translate(-24.74 58.45) rotate(-30)"/><ellipse class="cls-12" cx="120.45" cy="80.24" rx="3.31" ry="1.65" transform="translate(-6.87 11.43) rotate(-5.28)"/><ellipse class="cls-13" cx="205.19" cy="80.24" rx="1.65" ry="3.31" transform="matrix(0.07, -1, 1, 0.07, 110.13, 279)"/><path class="cls-14" d="M231.14,111.92c0-.48-30.4,7.11-66.79,7.11s-70.61-7.59-70.61-7.11,34.07,8.23,70.46,8.23S231.14,112.41,231.14,111.92Z"/><path class="cls-15" d="M195.41,90s-14.57,12.23-58.58,12.23c-27.73,0-43.09-17.62-43.09-17.62C96,85.94,112.81,90,139.3,91.28S195.41,90,195.41,90Z"/><path class="cls-16" d="M135.65,88.84a80.16,80.16,0,0,1-11.38-.53c-3.78-.41-7.55-1-11.29-1.65s-7.47-1.46-11.16-2.38-7.35-2-10.94-3.26a.2.2,0,0,1-.13-.26.21.21,0,0,1,.27-.13h0C94.58,82,98.22,83,101.9,84s7.39,1.77,11.12,2.48,7.48,1.31,11.26,1.75A80,80,0,0,0,135.65,88.84Z"/><path class="cls-17" d="M141.13,38.14a27.14,27.14,0,0,1,10.18-4.43,50,50,0,0,1,11.11-1.22,49.35,49.35,0,0,1,11.1,1.28,29,29,0,0,1,10.23,4.36v0h0a30.78,30.78,0,0,0-10.29-4.07A53.29,53.29,0,0,0,151.38,34,28.81,28.81,0,0,0,141.13,38.14Z"/><path class="cls-18" d="M137.49,13a32.21,32.21,0,0,1,11.92-5.19,58.67,58.67,0,0,1,13-1.42,58.06,58.06,0,0,1,13,1.49,34.31,34.31,0,0,1,12,5.11s0,0,0,0h0c-.95-.54-1.85-1.15-2.83-1.62l-1.48-.68a11.55,11.55,0,0,0-1.5-.62,45.14,45.14,0,0,0-6.24-1.85,63,63,0,0,0-25.84-.08c-1.07.19-2.1.52-3.15.8a30.18,30.18,0,0,0-3.08,1l-.77.27-.73.35-1.48.7C139.31,11.81,138.43,12.46,137.49,13Z"/><path class="cls-19" d="M140.32,25.45a27.82,27.82,0,0,1,10.57-4.58,53.27,53.27,0,0,1,11.53-1.29,52.56,52.56,0,0,1,11.52,1.35,29.7,29.7,0,0,1,10.62,4.51s0,0,0,0a0,0,0,0,1,0,0c-.84-.48-1.64-1-2.51-1.45s-1.73-.84-2.64-1.14a38.47,38.47,0,0,0-5.52-1.66A56.47,56.47,0,0,0,151,21.14a34.45,34.45,0,0,0-5.53,1.65A25.68,25.68,0,0,0,142.8,24C141.93,24.38,141.15,25,140.32,25.45Z"/><path class="cls-20" d="M141.41,31.71a26.93,26.93,0,0,1,10.05-4.38,49.27,49.27,0,0,1,11-1.2,48.6,48.6,0,0,1,11,1.26,28.87,28.87,0,0,1,10.1,4.31h0a30.44,30.44,0,0,0-10.15-4,52.76,52.76,0,0,0-21.77-.07A28.35,28.35,0,0,0,141.41,31.71Z"/><path class="cls-21" d="M147.35,50.14A19,19,0,0,1,154.56,47a34.77,34.77,0,0,1,15.72,0,20.27,20.27,0,0,1,7.25,3.07h0a22.31,22.31,0,0,0-7.28-2.9,38.81,38.81,0,0,0-15.63,0A20.81,20.81,0,0,0,147.35,50.14Z"/><path class="cls-22" d="M142.45,44.37A25.23,25.23,0,0,1,152,40.23a46.13,46.13,0,0,1,20.82.06,26.8,26.8,0,0,1,9.6,4.07h0a0,0,0,0,1,0,0c-.76-.43-1.49-.92-2.27-1.31s-1.56-.76-2.39-1a34.53,34.53,0,0,0-5-1.5,51.35,51.35,0,0,0-20.71-.07,32.19,32.19,0,0,0-5,1.5A24,24,0,0,0,144.69,43C143.9,43.4,143.2,43.93,142.45,44.37Z"/><path class="cls-23" d="M137.49,19.41a32.79,32.79,0,0,1,11.81-4.78A61.21,61.21,0,0,1,162,13.33a62,62,0,0,1,12.74,1.36,35.12,35.12,0,0,1,11.85,4.71s0,0,0,0h0c-.94-.5-1.84-1.07-2.82-1.5l-1.46-.63a11.65,11.65,0,0,0-1.49-.56A44,44,0,0,0,174.71,15,66.4,66.4,0,0,0,149.37,15c-1.05.17-2.07.47-3.1.73a29,29,0,0,0-3,1,26.09,26.09,0,0,0-2.95,1.21C139.3,18.29,138.42,18.9,137.49,19.41Z"/><path class="cls-24" d="M137.49,6.61a32,32,0,0,1,11.92-5.18,58.65,58.65,0,0,1,26,.06,34.14,34.14,0,0,1,12,5.12s0,0,0,0h0c-.95-.53-1.85-1.15-2.83-1.62l-1.48-.68a11.55,11.55,0,0,0-1.5-.62,43.77,43.77,0,0,0-6.24-1.84,62.5,62.5,0,0,0-25.84-.08c-1.07.18-2.1.51-3.15.79s-2.06.69-3.08,1.05l-.77.28-.73.34-1.48.7C139.31,5.41,138.43,6.06,137.49,6.61Z"/></g></g></svg>