<svg xmlns="http://www.w3.org/2000/svg" xmlns:xlink="http://www.w3.org/1999/xlink" viewBox="0 0 464.74 179.17"><defs><style>.cls-1{fill:url(#radial-gradient);}.cls-10,.cls-11,.cls-12,.cls-13,.cls-2,.cls-3,.cls-4,.cls-6,.cls-7,.cls-8,.cls-9{stroke-miterlimit:10;}.cls-2,.cls-3{stroke-width:0.35px;}.cls-2{fill:url(#linear-gradient);stroke:url(#linear-gradient-2);}.cls-3{fill:url(#linear-gradient-3);stroke:url(#linear-gradient-4);}.cls-10,.cls-11,.cls-12,.cls-13,.cls-4,.cls-6,.cls-7,.cls-8,.cls-9{stroke:#000;}.cls-4{stroke-width:0.03px;fill:url(#linear-gradient-5);}.cls-5{fill:url(#linear-gradient-6);}.cls-6,.cls-9{stroke-width:0.05px;}.cls-6{fill:url(#linear-gradient-7);}.cls-7{stroke-width:0.07px;fill:url(#linear-gradient-8);}.cls-10,.cls-8{stroke-width:0.04px;}.cls-8{fill:url(#linear-gradient-9);}.cls-9{fill:url(#linear-gradient-10);}.cls-10{fill:url(#linear-gradient-11);}.cls-11{stroke-width:0.03px;fill:url(#linear-gradient-12);}.cls-12,.cls-13{stroke-width:0.06px;}.cls-12{fill:url(#linear-gradient-13);}.cls-13{fill:url(#linear-gradient-14);}.cls-14{fill:url(#linear-gradient-15);}.cls-15{fill:url(#linear-gradient-16);}.cls-16{opacity:0.19;fill:url(#linear-gradient-17);}.cls-17{fill:url(#linear-gradient-18);}.cls-18{fill:url(#linear-gradient-19);}.cls-19{fill:url(#linear-gradient-20);}.cls-20{fill:url(#linear-gradient-21);}.cls-21{fill:url(#linear-gradient-22);}.cls-22{fill:url(#linear-gradient-23);}.cls-23{fill:url(#linear-gradient-24);}.cls-24{fill:url(#linear-gradient-25);}</style><radialGradient id="radial-gradient" cx="31.58" cy="175.46" r="166.65" gradientTransform="translate(142.19 121.73) scale(2.86 0.25)" gradientUnits="userSpaceOnUse"><stop offset="0.17"/><stop offset="0.18" stop-color="#050505"/><stop offset="0.19" stop-color="#151515"/><stop offset="0.21" stop-color="#2f2f2f"/><stop offset="0.22" stop-color="#535353"/><stop offset="0.23" stop-color="#818181"/><stop offset="0.25" stop-color="#b9b9b9"/><stop offset="0.26" stop-color="#fafafa"/><stop offset="0.27" stop-color="#fff"/></radialGradient><linearGradient id="linear-gradient" x1="317.13" y1="79.96" x2="42.3" y2="176.59" gradientUnits="userSpaceOnUse"><stop offset="0" stop-color="#231f20"/><stop offset="0.02" stop-color="#3d393a"/><stop offset="0.05" stop-color="#656263"/><stop offset="0.08" stop-color="#8a8888"/><stop offset="0.12" stop-color="#aaa8a9"/><stop offset="0.16" stop-color="#c5c4c4"/><stop offset="0.2" stop-color="#dadada"/><stop offset="0.26" stop-color="#ebebeb"/><stop offset="0.32" stop-color="#f6f6f6"/><stop offset="0.42" stop-color="#fdfdfd"/><stop offset="0.67" stop-color="#fff"/></linearGradient><linearGradient id="linear-gradient-2" x1="125.91" y1="105.79" x2="331.29" y2="105.79" gradientUnits="userSpaceOnUse"><stop offset="0.19" stop-color="#f1f2f2"/><stop offset="0.24" stop-color="#fbfbfb"/><stop offset="0.3" stop-color="#fff"/><stop offset="0.39" stop-color="#fbfbfb"/><stop offset="0.48" stop-color="#efefef"/><stop offset="0.57" stop-color="#dcdbdb"/><stop offset="0.67" stop-color="#c0bfbf"/><stop offset="0.76" stop-color="#9d9b9c"/><stop offset="0.85" stop-color="#716f6f"/><stop offset="0.94" stop-color="#3f3c3c"/><stop offset="0.99" stop-color="#231f20"/></linearGradient><linearGradient id="linear-gradient-3" x1="121.7" y1="142.28" x2="335.5" y2="142.28" gradientUnits="userSpaceOnUse"><stop offset="0" stop-color="#f1f2f2"/><stop offset="0.1" stop-color="#fbfbfb"/><stop offset="0.22" stop-color="#fff"/><stop offset="0.33" stop-color="#fbfbfb"/><stop offset="0.43" stop-color="#efefef"/><stop offset="0.54" stop-color="#dcdbdb"/><stop offset="0.64" stop-color="#c0bfbf"/><stop offset="0.74" stop-color="#9d9b9c"/><stop offset="0.85" stop-color="#716f6f"/><stop offset="0.95" stop-color="#3f3c3c"/><stop offset="1" stop-color="#231f20"/></linearGradient><linearGradient id="linear-gradient-4" x1="121.52" y1="141.87" x2="335.68" y2="141.87" gradientUnits="userSpaceOnUse"><stop offset="0" stop-color="#f1f2f2"/><stop offset="0.03" stop-color="#fbfbfb"/><stop offset="0.05" stop-color="#fff"/><stop offset="0.18" stop-color="#fbfbfb"/><stop offset="0.31" stop-color="#efefef"/><stop offset="0.43" stop-color="#dcdbdb"/><stop offset="0.55" stop-color="#c0bfbf"/><stop offset="0.68" stop-color="#9d9b9c"/><stop offset="0.8" stop-color="#716f6f"/><stop offset="0.93" stop-color="#3f3c3c"/><stop offset="0.99" stop-color="#231f20"/></linearGradient><linearGradient id="linear-gradient-5" x1="228.61" y1="83.54" x2="228.58" y2="85.16" gradientUnits="userSpaceOnUse"><stop offset="0" stop-color="#231f20"/><stop offset="0.11" stop-color="#fff"/><stop offset="0.16" stop-color="#e0dfdf"/><stop offset="0.27" stop-color="#9d9c9c"/><stop offset="0.36" stop-color="#696667"/><stop offset="0.45" stop-color="#433f40"/><stop offset="0.51" stop-color="#2c2829"/><stop offset="0.55" stop-color="#231f20"/></linearGradient><linearGradient id="linear-gradient-6" x1="7.76" y1="28.68" x2="28.45" y2="28.68" gradientTransform="matrix(1.91, 2.83, -2.74, 1.84, 264.77, -0.25)" gradientUnits="userSpaceOnUse"><stop offset="0" stop-color="#fff"/><stop offset="0.33" stop-color="#fff" stop-opacity="0.99"/><stop offset="0.46" stop-color="#fefefe" stop-opacity="0.96"/><stop offset="0.56" stop-color="#fdfdfd" stop-opacity="0.91"/><stop offset="0.65" stop-color="#fbfbfb" stop-opacity="0.85"/><stop offset="0.72" stop-color="#f8f8f8" stop-opacity="0.75"/><stop offset="0.79" stop-color="#f5f5f5" stop-opacity="0.64"/><stop offset="0.85" stop-color="#f1f1f1" stop-opacity="0.51"/><stop offset="0.9" stop-color="#ededed" stop-opacity="0.36"/><stop offset="0.95" stop-color="#e8e8e8" stop-opacity="0.19"/><stop offset="1" stop-color="#e3e3e3" stop-opacity="0"/></linearGradient><linearGradient id="linear-gradient-7" x1="227.26" y1="96.77" x2="227.16" y2="102.44" xlink:href="#linear-gradient-5"/><linearGradient id="linear-gradient-8" x1="228.65" y1="117.88" x2="228.47" y2="127.82" xlink:href="#linear-gradient-5"/><linearGradient id="linear-gradient-9" x1="276.11" y1="53.94" x2="276.01" y2="59.62" gradientTransform="matrix(0, 1, -0.66, 0, 315.76, -184.98)" xlink:href="#linear-gradient-5"/><linearGradient id="linear-gradient-10" x1="302.53" y1="61.82" x2="302.42" y2="67.5" gradientTransform="translate(380.71 -195.82) rotate(90)" xlink:href="#linear-gradient-5"/><linearGradient id="linear-gradient-11" x1="136.99" y1="107.28" x2="136.88" y2="112.96" gradientTransform="matrix(-1, 0, 0, 0.66, 309.36, 20.48)" xlink:href="#linear-gradient-5"/><linearGradient id="linear-gradient-12" x1="176.01" y1="195.65" x2="175.91" y2="201.32" gradientTransform="matrix(-1, 0, 0, 0.5, 312.7, 7.93)" xlink:href="#linear-gradient-5"/><linearGradient id="linear-gradient-13" x1="89.05" y1="101.67" x2="88.95" y2="107.35" gradientTransform="matrix(-0.94, 0, 0, 1.77, 253.66, -69.95)" xlink:href="#linear-gradient-5"/><linearGradient id="linear-gradient-14" x1="431.53" y1="87.27" x2="431.43" y2="92.95" gradientTransform="matrix(0, 0.94, -1.77, 0, 447.99, -290.49)" xlink:href="#linear-gradient-5"/><linearGradient id="linear-gradient-15" x1="132.54" y1="164.06" x2="326.82" y2="164.06" gradientUnits="userSpaceOnUse"><stop offset="0" stop-color="#fff"/><stop offset="0.26" stop-color="#fff" stop-opacity="0.99"/><stop offset="0.37" stop-color="#fefefe" stop-opacity="0.96"/><stop offset="0.45" stop-color="#fdfdfd" stop-opacity="0.91"/><stop offset="0.52" stop-color="#fbfbfb" stop-opacity="0.85"/><stop offset="0.57" stop-color="#f8f8f8" stop-opacity="0.75"/><stop offset="0.63" stop-color="#f5f5f5" stop-opacity="0.64"/><stop offset="0.67" stop-color="#f1f1f1" stop-opacity="0.51"/><stop offset="0.72" stop-color="#ededed" stop-opacity="0.36"/><stop offset="0.76" stop-color="#e8e8e8" stop-opacity="0.19"/><stop offset="0.8" stop-color="#e3e3e3" stop-opacity="0"/></linearGradient><linearGradient id="linear-gradient-16" x1="204.97" y1="114.61" x2="202.43" y2="155.13" gradientUnits="userSpaceOnUse"><stop offset="0" stop-opacity="0.4"/><stop offset="0.13" stop-color="#545454" stop-opacity="0.27"/><stop offset="0.97" stop-color="#fff" stop-opacity="0"/></linearGradient><linearGradient id="linear-gradient-17" x1="131.37" y1="107.32" x2="188.9" y2="132.87" gradientUnits="userSpaceOnUse"><stop offset="0.38" stop-color="#fff" stop-opacity="0.4"/><stop offset="0.48" stop-color="#efefef" stop-opacity="0.44"/><stop offset="0.59" stop-color="#c1c0c0" stop-opacity="0.57"/><stop offset="0.71" stop-color="#767374" stop-opacity="0.77"/><stop offset="0.81" stop-color="#231f20"/></linearGradient><linearGradient id="linear-gradient-18" x1="229.68" y1="54.22" x2="229.68" y2="45.94" gradientUnits="userSpaceOnUse"><stop offset="0" stop-color="#fff" stop-opacity="0"/><stop offset="0.03" stop-color="#f5fcfe" stop-opacity="0.04"/><stop offset="0.39" stop-color="#8ddaf5" stop-opacity="0.45"/><stop offset="0.68" stop-color="#41c2ef" stop-opacity="0.74"/><stop offset="0.89" stop-color="#12b3eb" stop-opacity="0.93"/><stop offset="1" stop-color="#00ade9"/></linearGradient><linearGradient id="linear-gradient-19" x1="229.68" y1="18.74" x2="229.68" y2="9.04" xlink:href="#linear-gradient-18"/><linearGradient id="linear-gradient-20" x1="229.68" y1="36.28" x2="229.68" y2="27.68" xlink:href="#linear-gradient-18"/><linearGradient id="linear-gradient-21" x1="229.68" y1="45.12" x2="229.68" y2="36.94" xlink:href="#linear-gradient-18"/><linearGradient id="linear-gradient-22" x1="229.68" y1="71.1" x2="229.68" y2="65.24" xlink:href="#linear-gradient-18"/><linearGradient id="linear-gradient-23" x1="229.68" y1="63.01" x2="229.68" y2="55.24" xlink:href="#linear-gradient-18"/><linearGradient id="linear-gradient-24" x1="229.15" y1="27.77" x2="229.15" y2="18.85" xlink:href="#linear-gradient-18"/><linearGradient id="linear-gradient-25" x1="229.68" y1="9.69" x2="229.68" y2="0" xlink:href="#linear-gradient-18"/></defs><title>speakerLg</title><g id="Layer_2" data-name="Layer 2"><g id="Layer_1-2" data-name="Layer 1"><path class="cls-1" d="M464.74,161.23c0-6.68-83.86-9.12-219.37-9.12S0,157.52,0,164.2s122.06,15,257.57,15S464.74,167.9,464.74,161.23Z"/><path class="cls-2" d="M331.11,113.46c0,8.33-45.87,15.08-102.51,15.1s-102.51-6.77-102.51-15.1S172,83,228.6,83,331.11,105.14,331.11,113.46Z"/><path class="cls-3" d="M330.84,157.11l-.06.09c-4.15,7.76-48.3,13.87-102.18,13.9s-98-6.14-102.19-13.9a.44.44,0,0,0,0-.09c-.78-1.3-9.92-17.38-.27-43.65,0,8.33,45.87,15.08,102.51,15.1s102.51-6.77,102.51-15.1C340.75,139.73,331.62,155.81,330.84,157.11Z"/><ellipse class="cls-4" cx="228.6" cy="84.02" rx="4.99" ry="0.36"/><path class="cls-5" d="M290.13,99.78c-104.9-8.67-133.6-5.66-134.15,10.74C154.75,146.94,290.13,99.78,290.13,99.78Z"/><ellipse class="cls-6" cx="227.23" cy="98.46" rx="4.99" ry="1.31"/><ellipse class="cls-7" cx="228.6" cy="120.85" rx="4.99" ry="2.3"/><ellipse class="cls-8" cx="279.26" cy="91.1" rx="0.86" ry="4.99" transform="translate(124.31 340.65) rotate(-76.23)"/><ellipse class="cls-9" cx="317.2" cy="106.67" rx="1.31" ry="4.99" transform="translate(91.77 354.01) rotate(-66.24)"/><ellipse class="cls-10" cx="172.4" cy="91.96" rx="4.99" ry="0.86" transform="translate(-16.94 43.68) rotate(-13.77)"/><ellipse class="cls-11" cx="136.72" cy="106.6" rx="4.99" ry="0.66" transform="translate(-34.98 82.64) rotate(-30)"/><ellipse class="cls-12" cx="170.31" cy="113.46" rx="4.68" ry="2.33" transform="translate(-9.72 16.16) rotate(-5.28)"/><ellipse class="cls-13" cx="290.13" cy="113.46" rx="2.33" ry="4.68" transform="translate(155.71 394.49) rotate(-85.8)"/><path class="cls-14" d="M326.82,158.26c0-.68-43,10-94.44,10s-99.84-10.72-99.84-10,48.18,11.62,99.64,11.62S326.82,158.94,326.82,158.26Z"/><path class="cls-15" d="M276.3,127.27s-20.6,17.29-82.83,17.29c-39.21,0-60.93-24.91-60.93-24.91,3.2,1.87,27,7.58,64.42,9.42S276.3,127.27,276.3,127.27Z"/><path class="cls-16" d="M191.8,125.62a112.38,112.38,0,0,1-16.09-.75c-5.35-.57-10.67-1.38-16-2.33s-10.56-2.07-15.78-3.37-10.4-2.78-15.48-4.6a.29.29,0,0,1-.17-.38.28.28,0,0,1,.37-.17h0c5,1.85,10.18,3.37,15.38,4.72s10.44,2.51,15.72,3.51,10.59,1.85,15.92,2.48A112.35,112.35,0,0,0,191.8,125.62Z"/><path class="cls-17" d="M199.54,53.93A38.63,38.63,0,0,1,214,47.67a70.52,70.52,0,0,1,31.4.08,41.14,41.14,0,0,1,14.47,6.17s0,0,0,0,0,0,0,0c-1.14-.65-2.23-1.38-3.41-2l-1.79-.82a15.08,15.08,0,0,0-1.82-.74,52,52,0,0,0-7.53-2.23,75.51,75.51,0,0,0-31.21-.1c-1.29.22-2.54.62-3.81,1a38.83,38.83,0,0,0-3.72,1.27l-.92.33-.89.42-1.78.84a12.49,12.49,0,0,0-1.7,1Z"/><path class="cls-18" d="M194.4,18.4c4.93-3.74,10.86-5.94,16.86-7.36a83.67,83.67,0,0,1,36.77.11A47.56,47.56,0,0,1,265,18.39s0,0,0,0,0,0,0,0a39.81,39.81,0,0,0-8.21-4.15,61.43,61.43,0,0,0-8.81-2.61,89.76,89.76,0,0,0-36.55-.12,57.56,57.56,0,0,0-8.82,2.6A37.23,37.23,0,0,0,194.4,18.4Z"/><path class="cls-19" d="M198.4,36a40,40,0,0,1,14.95-6.51,73.31,73.31,0,0,1,32.6.09A42.85,42.85,0,0,1,261,36s0,0,0,0h0c-1.18-.68-2.32-1.44-3.54-2l-1.86-.85a14,14,0,0,0-1.88-.77A54.43,54.43,0,0,0,245.84,30a78.9,78.9,0,0,0-32.39-.1c-1.34.23-2.64.65-3.95,1a39.82,39.82,0,0,0-3.86,1.31l-1,.35-.93.43-1.84.87a14,14,0,0,0-1.77,1Z"/><path class="cls-20" d="M200,44.83a38.14,38.14,0,0,1,14.21-6.18,69.82,69.82,0,0,1,31,.08,40.66,40.66,0,0,1,14.27,6.09s0,0,0,0h0c-1.12-.65-2.2-1.37-3.36-1.94l-1.77-.81a14,14,0,0,0-1.79-.73A52,52,0,0,0,245,39.16a75.09,75.09,0,0,0-30.79-.09c-1.27.22-2.51.61-3.75,1a34.48,34.48,0,0,0-3.67,1.25l-.92.32L205,42l-1.76.83a14,14,0,0,0-1.68,1Z"/><path class="cls-21" d="M208.35,70.9a27.27,27.27,0,0,1,10.19-4.44,50,50,0,0,1,22.23.06A29.22,29.22,0,0,1,251,70.89s0,0,0,0h0a31.15,31.15,0,0,0-10.3-4.08,53.84,53.84,0,0,0-22.09-.07A28.88,28.88,0,0,0,208.35,70.9Z"/><path class="cls-22" d="M201.41,62.74a36.23,36.23,0,0,1,13.51-5.88,66.58,66.58,0,0,1,29.46.08,38.63,38.63,0,0,1,13.56,5.79s0,0,0,0h0c-1.08-.61-2.1-1.3-3.21-1.84l-1.67-.77a15,15,0,0,0-1.71-.7,49.33,49.33,0,0,0-7.06-2.09,67.85,67.85,0,0,0-14.63-1.57A68.63,68.63,0,0,0,215,57.26c-1.21.21-2.38.58-3.57.9A35.85,35.85,0,0,0,208,59.35l-.87.31-.83.39-1.67.79a12.73,12.73,0,0,0-1.6.92Z"/><path class="cls-23" d="M194.4,27.45c5-3.46,10.81-5.46,16.7-6.76a87,87,0,0,1,36,.09,49.56,49.56,0,0,1,16.76,6.66s0,0,0,0h0l-2-1.09a16.41,16.41,0,0,0-2-1l-2.08-.89-1-.44c-.35-.13-.72-.24-1.07-.36A63.43,63.43,0,0,0,247,21.27a93.84,93.84,0,0,0-35.82-.11c-1.49.24-2.93.66-4.39,1a43.69,43.69,0,0,0-4.3,1.35l-1.07.36c-.35.13-.69.3-1,.44l-2.06.91a15.76,15.76,0,0,0-2,1.06Z"/><path class="cls-24" d="M194.4,9.36c4.93-3.75,10.86-5.95,16.86-7.36a81.79,81.79,0,0,1,18.39-2A82.9,82.9,0,0,1,248,2.1,47.74,47.74,0,0,1,265,9.34a0,0,0,0,1,0,0,0,0,0,0,1,0,0,40.31,40.31,0,0,0-8.21-4.15,61.43,61.43,0,0,0-8.81-2.61A86.37,86.37,0,0,0,229.65.67a85,85,0,0,0-18.28,1.82,57.6,57.6,0,0,0-8.82,2.61A36.8,36.8,0,0,0,194.4,9.36Z"/></g></g></svg>